<?xml version="1.0" standalone="no"?><svg xmlns="http://www.w3.org/2000/svg" viewBox="0 0 1440 320"><path fill="#F5F3E8" fill-opacity="1" d="M0,160L30,149.3C60,139,120,117,180,138.7C240,160,300,224,360,218.7C420,213,480,139,540,144C600,149,660,235,720,250.7C780,267,840,213,900,160C960,107,1020,53,1080,42.7C1140,32,1200,64,1260,80C1320,96,1380,96,1410,96L1440,96L1440,320L1410,320C1380,320,1320,320,1260,320C1200,320,1140,320,1080,320C1020,320,960,320,900,320C840,320,780,320,720,320C660,320,600,320,540,320C480,320,420,320,360,320C300,320,240,320,180,320C120,320,60,320,30,320L0,320Z"></path></svg>